<svg xmlns="http://www.w3.org/2000/svg" version="1.1" xmlns:xlink="http://www.w3.org/1999/xlink" xmlns:svgjs="http://svgjs.dev/svgjs" width="1500" height="1817" viewBox="0 0 1500 1817"><g transform="matrix(1,0,0,1,0.31905149670967603,-451.7488667635611)"><svg viewBox="0 0 307 372" data-background-color="#ffffff" preserveAspectRatio="xMidYMid meet" height="1817" width="1500" xmlns="http://www.w3.org/2000/svg" xmlns:xlink="http://www.w3.org/1999/xlink"><g id="tight-bounds" transform="matrix(1,0,0,1,-0.06529920632658559,92.48812800442533)"><svg viewBox="0 0 279.72 279.72" height="279.72" width="279.72"><g><svg viewBox="0 0 279.72 279.72" height="279.72" width="279.72"><g><svg viewBox="0 0 279.72 279.72" height="279.72" width="279.72"><g id="textblocktransform"><svg viewBox="0 0 279.72 279.72" height="279.72" width="279.72" id="textblock"><g><svg viewBox="0 0 279.72 279.72" height="279.72" width="279.72"><g transform="matrix(1,0,0,1,57.446704652707865,57.446704652707865)"><svg viewBox="0 0 164.8265906945843 164.8265906945843" height="164.8265906945843" width="164.8265906945843"><g id="icon-0"><circle r="82" cx="82.41329534729215" cy="82.41329534729215" fill="#2257bf" data-fill-palette-color="accent"></circle><svg xmlns="http://www.w3.org/2000/svg" viewBox="54.9939216037007 16 441.0060783962993 473.94" x="24.72398860418764" y="24.723988604187646" height="115.378613486209" width="115.378613486209" class="icon-xg-0" data-fill-palette-color="quaternary" id="xg-0"><path d="M360 16c-74.99 0-136 61.009-136 136a135.94 135.94 0 0 0 58.468 111.669l-48.415 91.772a31.845 31.845 0 1 0 13.705 8.315l48.383-91.712A135.156 135.156 0 0 0 360 288c74.99 0 136-61.009 136-136S434.99 16 360 16ZM239.737 391.806a16 16 0 1 1-9.2-20.675A15.9 15.9 0 0 1 239.737 391.806ZM360 272A119.246 119.246 0 0 1 303.605 257.9l7.471-14.162-14.152-7.466-6.93 13.136A119.936 119.936 0 1 1 360 272Z" fill="#ffffff" data-fill-palette-color="quaternary"></path><path d="M426.286 133.763l6.136-8.59A28.567 28.567 0 0 0 409.176 80H352a8 8 0 0 1 0-16h32V48H352a24 24 0 0 0 0 48h57.176A12.567 12.567 0 0 1 419.4 115.873l-8.747 12.246c-0.876-0.072-1.76-0.119-2.655-0.119V112H392v16H376V112H360v16a31.8 31.8 0 0 0-16.242 4.444l-11.071-11.071-11.315 11.313 11.072 11.072A31.826 31.826 0 0 0 329.013 152H312v16h17.013a31.826 31.826 0 0 0 3.431 8.242l-11.072 11.072 11.315 11.313 11.071-11.071A31.8 31.8 0 0 0 360 192v16h16V192h16v16h16V192a31.8 31.8 0 0 0 16.242-4.444l11.071 11.071 11.315-11.313-11.072-11.072A31.826 31.826 0 0 0 438.987 168H456V152H438.987A32.092 32.092 0 0 0 426.286 133.763ZM360 176a16 16 0 0 1 0-32h39.312l-5.822 8.15 13.02 9.3 10.482-14.675A15.994 15.994 0 0 1 408 176Z" fill="#ffffff" data-fill-palette-color="quaternary"></path><rect x="288" y="80" width="16" height="16" fill="#ffffff" data-fill-palette-color="quaternary"></rect><rect x="448" y="120" width="16" height="16" fill="#ffffff" data-fill-palette-color="quaternary"></rect><rect x="416" y="216" width="16" height="16" fill="#ffffff" data-fill-palette-color="quaternary"></rect><rect x="288" y="208" width="16" height="16" fill="#ffffff" data-fill-palette-color="quaternary"></rect><path d="M289.657 150.343a8.98 8.98 0 0 1 0-12.686l12-12-11.314-11.314-12 12a25 25 0 0 0 0 35.314 8.98 8.98 0 0 1 0 12.686l-12 12 11.314 11.314 12-12A25 25 0 0 0 289.657 150.343Z" fill="#ffffff" data-fill-palette-color="quaternary"></path><path d="M376 223.029a24.808 24.808 0 0 0-17.657 7.314 8.969 8.969 0 0 1-12.686 0l-12-12-11.314 11.314 12 12a24.97 24.97 0 0 0 35.314 0 8.969 8.969 0 0 1 12.686 0l12 12 11.314-11.314-12-12A24.808 24.808 0 0 0 376 223.029Z" fill="#ffffff" data-fill-palette-color="quaternary"></path><path d="M224.105 338.062l-0.21-16A64.042 64.042 0 0 0 162.8 402l15.494-3.99a48.043 48.043 0 0 1 45.809-59.943Z" fill="#ffffff" data-fill-palette-color="quaternary"></path><path d="M244.68 429.763l6.64 14.557a64 64 0 0 0 36.566-47.461l-15.772-2.7A48.009 48.009 0 0 1 244.68 429.763Z" fill="#ffffff" data-fill-palette-color="quaternary"></path><path d="M144.84 320H192V304H129.638l-18.1-50.691-15.068 5.382 20 56A8 8 0 0 0 124 320h4.76l7.141 71.411L112.239 486.06l15.522 3.88 24-96a8 8 0 0 0 0.2-2.736Z" fill="#ffffff" data-fill-palette-color="quaternary"></path><rect x="144" y="272" width="16" height="16" fill="#ffffff" data-fill-palette-color="quaternary"></rect><path d="M324 320a8 8 0 0 0 7.534-5.31l5.564-15.578-15.069-5.381L318.362 304H296v16h7.16l-7.12 71.2a8 8 0 0 0 0.2 2.736l24 96 15.522-3.88L312.1 391.411 319.24 320Z" fill="#ffffff" data-fill-palette-color="quaternary"></path><rect x="216" y="456" width="16" height="16" fill="#ffffff" data-fill-palette-color="quaternary"></rect><path d="M202.343 229.657l11.314-11.314-16-16A8 8 0 0 0 192 200H144v16h44.687Z" fill="#ffffff" data-fill-palette-color="quaternary"></path><path d="M71.33 220.6A47 47 0 0 1 117.994 168H208V152H117.994a63 63 0 0 0-62.551 70.506L71.97 360.229 64.016 487.5l15.968 1 8-128a7.917 7.917 0 0 0-0.041-1.452Z" fill="#ffffff" data-fill-palette-color="quaternary"></path><path d="M382.638 305.164l-15.887-1.907-6.694 55.79a7.917 7.917 0 0 0-0.041 1.452l8 128 15.968-1L376.03 360.229Z" fill="#ffffff" data-fill-palette-color="quaternary"></path></svg></g></svg></g><g id="text-0"><path d="M7.701 89.288v0c1.406 0.478 2.94 1.007 4.603 1.588 1.666 0.574 3.562 1.222 5.69 1.946v0c1.776 0.604 3.495 1.189 5.157 1.754 1.655 0.563 3.116 1.056 4.383 1.48 1.263 0.415 2.217 0.722 2.863 0.921v0l1.531-2.238 1.051 0.902c-0.24 0.56-0.454 1.115-0.64 1.664-0.187 0.55-0.414 1.217-0.682 2.004v0c-0.202 0.594-0.364 1.092-0.486 1.492-0.122 0.401-0.226 0.757-0.311 1.07v0c-0.447-0.131-0.873-0.233-1.275-0.305-0.401-0.079-0.816-0.167-1.247-0.264v0c-0.984-0.356-1.966-0.708-2.946-1.055-0.986-0.35-1.939-0.681-2.859-0.994v0c-0.639-0.217-1.265-0.43-1.878-0.639-0.613-0.209-1.254-0.412-1.921-0.611v0c-1.01-0.343-2.114-0.701-3.313-1.073-1.193-0.37-2.393-0.729-3.602-1.076-1.206-0.353-2.306-0.649-3.302-0.887v0l-1.328 2.521-1.519-0.186c0.126-0.371 0.279-0.893 0.458-1.566 0.179-0.673 0.376-1.409 0.589-2.205 0.208-0.799 0.397-1.576 0.569-2.331 0.169-0.748 0.307-1.385 0.415-1.912zM15.013 101.368v0c0.411-1.208 1.093-2.166 2.047-2.875 0.946-0.705 2.07-1.067 3.375-1.088v0l2.453 1.968c-0.767-0.261-1.518-0.338-2.253-0.231-0.735 0.106-1.382 0.321-1.941 0.644-0.565 0.321-0.961 0.678-1.187 1.072v0c-0.036 0.965 0.332 1.853 1.104 2.664 0.776 0.82 1.781 1.44 3.014 1.859v0c1.668 0.567 3.016 0.669 4.045 0.307 1.029-0.363 1.681-0.95 1.957-1.762v0c0.261-0.767 0.09-1.638-0.512-2.612-0.596-0.973-1.529-1.825-2.799-2.556v0l1.822-0.514c1.402 1.14 2.457 2.397 3.165 3.772 0.707 1.381 0.806 2.819 0.297 4.314v0c-0.335 0.984-0.942 1.847-1.821 2.588-0.873 0.744-1.967 1.224-3.281 1.44-1.308 0.218-2.795 0.044-4.463-0.523v0c-1.559-0.53-2.761-1.282-3.607-2.254-0.843-0.978-1.369-2.023-1.575-3.134-0.213-1.113-0.16-2.14 0.16-3.079z" fill="#2257bf" data-fill-palette-color="primary"></path><path d="M23.745 80.226v0c0.531-1.032 1.246-1.871 2.147-2.517 0.907-0.642 1.955-0.991 3.145-1.047 1.187-0.05 2.471 0.279 3.851 0.989v0c-0.147 0.493-0.382 1.128-0.705 1.903-0.319 0.769-0.692 1.606-1.119 2.51-0.427 0.904-0.868 1.8-1.324 2.688v0c-0.339 0.66-0.64 1.223-0.902 1.688-0.262 0.465-0.446 0.772-0.554 0.922v0l-1.485-0.763c0.117-0.228 0.295-0.573 0.532-1.036 0.238-0.462 0.495-0.986 0.773-1.572 0.275-0.595 0.532-1.176 0.771-1.743 0.245-0.565 0.43-1.05 0.555-1.457v0c-0.445-0.198-0.944-0.303-1.499-0.315-0.555-0.012-1.097 0.119-1.626 0.394-0.534 0.272-0.977 0.75-1.329 1.434v0c0.186 0.612 0.56 1.221 1.121 1.828 0.564 0.601 1.299 1.134 2.205 1.6v0c1.855 0.953 3.42 1.268 4.694 0.944 1.274-0.324 2.203-1.053 2.787-2.187v0c0.592-1.153 0.806-2.579 0.64-4.281v0l1.775 0.047c0.348 1.302 0.437 2.546 0.266 3.734-0.167 1.197-0.505 2.29-1.014 3.28v0c-0.592 1.153-1.401 2.099-2.427 2.839-1.016 0.737-2.186 1.153-3.509 1.247-1.32 0.088-2.733-0.255-4.24-1.029v0c-1.525-0.784-2.635-1.753-3.332-2.908-0.703-1.158-1.053-2.366-1.051-3.625-0.001-1.268 0.284-2.457 0.854-3.567z" fill="#2257bf" data-fill-palette-color="primary"></path><path d="M40.935 78.679v0c-0.622-0.656-1.138-1.204-1.55-1.642-0.417-0.442-0.887-0.896-1.411-1.361v0l0.986-1.436 2.552 1.077c0.383-0.105 0.749-0.292 1.097-0.56 0.35-0.259 0.643-0.561 0.881-0.906v0c0.329-0.478 0.507-0.982 0.534-1.512 0.022-0.533-0.206-0.964-0.684-1.293v0c-0.401-0.275-0.83-0.353-1.288-0.234-0.458 0.119-0.946 0.341-1.464 0.665-0.519 0.315-1.057 0.662-1.612 1.042-0.556 0.38-1.143 0.693-1.763 0.939-0.623 0.252-1.264 0.368-1.923 0.349-0.664-0.022-1.35-0.276-2.056-0.761v0c-0.974-0.669-1.577-1.435-1.81-2.3-0.239-0.868-0.215-1.773 0.071-2.714 0.281-0.945 0.715-1.846 1.304-2.703v0c0.462-0.673 1.02-1.318 1.673-1.934 0.651-0.626 1.323-1.134 2.017-1.525v0c0.564 0.609 1.061 1.155 1.491 1.638 0.428 0.474 0.859 0.93 1.295 1.369v0l-1.059 1.47-2.197-0.968c-0.699 0.028-1.317 0.434-1.856 1.218v0c-0.29 0.423-0.459 0.876-0.504 1.361-0.055 0.486 0.137 0.88 0.576 1.182v0c0.417 0.287 0.862 0.367 1.333 0.24 0.466-0.13 0.965-0.373 1.496-0.729 0.522-0.354 1.082-0.735 1.681-1.142 0.605-0.403 1.235-0.736 1.889-0.999 0.665-0.264 1.355-0.375 2.072-0.333 0.716 0.042 1.467 0.332 2.251 0.871v0c0.918 0.631 1.479 1.381 1.685 2.25 0.196 0.871 0.13 1.801-0.196 2.788-0.323 0.982-0.812 1.952-1.47 2.909v0c-0.501 0.729-1.082 1.414-1.744 2.056-0.668 0.638-1.434 1.181-2.297 1.628z" fill="#2257bf" data-fill-palette-color="primary"></path><path d="M43.419 52.047v0c0.998 0.899 1.949 1.765 2.852 2.599 0.899 0.839 1.724 1.586 2.476 2.243v0c0.646 0.564 1.401 1.197 2.267 1.899 0.861 0.707 1.621 1.335 2.28 1.884v0l2.38-1.618 0.582 1.288c-0.435 0.426-0.86 0.867-1.274 1.32-0.409 0.458-1.018 1.15-1.825 2.075v0c-0.746 0.854-1.322 1.529-1.729 2.026-0.397 0.496-0.825 1.022-1.285 1.579v0l-1.335-0.426 1.396-2.706c-0.843-0.799-1.583-1.486-2.22-2.06-0.637-0.574-1.348-1.186-2.133-1.836v0c-0.402-0.351-0.762-0.661-1.082-0.932-0.324-0.265-0.691-0.558-1.1-0.88-0.41-0.331-0.942-0.738-1.596-1.219v0l-1.969 1.561-1.337-0.47c0.33-0.419 0.76-0.963 1.289-1.629 0.519-0.667 1.072-1.407 1.658-2.222 0.581-0.809 1.15-1.635 1.705-2.476zM39.763 52.309v0c-0.488 0.559-1.116 0.858-1.884 0.895-0.773 0.033-1.464-0.217-2.074-0.75v0c-0.574-0.502-0.897-1.138-0.968-1.907-0.066-0.766 0.145-1.428 0.633-1.988v0c0.484-0.554 1.11-0.85 1.878-0.887 0.773-0.033 1.446 0.201 2.02 0.703v0c0.61 0.533 0.951 1.184 1.022 1.954 0.066 0.766-0.143 1.426-0.627 1.98z" fill="#2257bf" data-fill-palette-color="primary"></path><path d="M57.885 38.704v0c1-0.866 2.143-1.201 3.43-1.003 1.297 0.198 2.496 0.865 3.596 2.001v0c0.29 0.293 0.719 0.788 1.287 1.484 0.568 0.687 1.19 1.43 1.864 2.229 0.67 0.794 1.295 1.526 1.874 2.194v0l2.451-1.159 0.422 1.336c-0.485 0.358-1.023 0.783-1.613 1.277-0.581 0.494-1.152 0.985-1.713 1.471v0c-0.684 0.592-1.289 1.13-1.817 1.614-0.528 0.493-1.013 0.944-1.453 1.353v0l-1.186-0.674 1.443-2.215c-0.502-0.61-0.922-1.131-1.259-1.561-0.343-0.426-0.686-0.848-1.029-1.265-0.348-0.422-0.775-0.905-1.282-1.448v0c-0.943-1.058-1.811-1.673-2.602-1.844-0.792-0.171-1.615-0.025-2.472 0.44v0c-0.328 1.177-0.35 2.286-0.066 3.326 0.284 1.039 0.726 1.885 1.326 2.535v0l-1.98-0.307c-0.744-1.106-1.216-2.264-1.417-3.475-0.201-1.201-0.119-2.353 0.248-3.456 0.37-1.098 1.02-2.049 1.948-2.853zM53.481 42.279v0c0.504 0.582 0.91 1.051 1.22 1.408 0.314 0.362 0.62 0.726 0.919 1.092 0.304 0.361 0.697 0.856 1.179 1.484v0l5.409 6.042 2.398-1.113 0.505 1.263c-0.628 0.481-1.209 0.945-1.743 1.39-0.53 0.45-1.111 0.949-1.743 1.497v0c-0.684 0.592-1.269 1.113-1.755 1.561-0.482 0.454-0.972 0.909-1.469 1.367v0l-1.255-0.614 1.489-2.255c-0.486-0.561-1.038-1.244-1.655-2.049-0.618-0.795-1.223-1.535-1.815-2.218v0c-0.442-0.51-0.814-0.934-1.114-1.271-0.306-0.333-0.641-0.673-1.004-1.02-0.358-0.341-0.841-0.79-1.447-1.345v0l-2.481 1.28-1.176-0.723c0.987-0.953 1.897-1.876 2.732-2.769 0.839-0.897 1.775-1.899 2.806-3.007z" fill="#2257bf" data-fill-palette-color="primary"></path><path d="M69.171 29.318v0c-1.168-2.142-1.8-4.054-1.896-5.736-0.09-1.686 0.189-3.118 0.836-4.297 0.649-1.189 1.486-2.097 2.511-2.724v0c1.785-1.092 3.309-1.4 4.574-0.924v0c0.407 0.756 0.677 1.461 0.808 2.117 0.132 0.655 0.185 1.343 0.159 2.063v0l-1.597 0.977c-0.947-0.837-1.784-1.369-2.509-1.598-0.729-0.234-1.374-0.235-1.936-0.002v0c-0.135 0.763-0.027 1.694 0.321 2.795 0.352 1.106 1.013 2.45 1.981 4.033v0c0.437 0.714 0.96 1.569 1.57 2.565 0.613 1.002 1.273 2.074 1.98 3.215 0.713 1.139 1.431 2.274 2.155 3.406 0.722 1.141 1.393 2.198 2.012 3.172v0l3.657-0.968 0.222 1.371c-0.344 0.187-0.797 0.444-1.356 0.771-0.565 0.33-1.148 0.671-1.749 1.022-0.596 0.357-1.131 0.68-1.602 0.969v0c-0.582 0.38-1.27 0.821-2.064 1.322-0.799 0.505-1.498 0.952-2.098 1.343v0l-1.172-0.79 2.193-2.196c-0.77-1.349-1.507-2.599-2.212-3.751-0.701-1.146-1.433-2.355-2.196-3.628-0.764-1.274-1.628-2.782-2.592-4.527zM67.973 33.683l-0.508-1.897 9.317-5.701 1.807 2.158c-1.79 0.85-3.597 1.719-5.42 2.605-1.823 0.886-3.556 1.832-5.196 2.835z" fill="#2257bf" data-fill-palette-color="primary"></path><path d="M86.176 20.572v0c1.047-0.501 2.125-0.735 3.232-0.703 1.11 0.038 2.156 0.394 3.137 1.069 0.975 0.678 1.798 1.718 2.468 3.119v0c-0.416 0.304-0.987 0.666-1.713 1.088-0.72 0.419-1.523 0.859-2.41 1.32-0.887 0.461-1.781 0.907-2.682 1.339v0c-0.67 0.32-1.25 0.586-1.739 0.798-0.49 0.212-0.823 0.345-0.999 0.399v0l-0.72-1.507c0.231-0.111 0.582-0.278 1.05-0.503 0.469-0.224 0.991-0.485 1.567-0.783 0.579-0.307 1.135-0.614 1.669-0.921 0.537-0.301 0.978-0.576 1.323-0.823v0c-0.234-0.427-0.568-0.813-1.003-1.159-0.435-0.346-0.945-0.569-1.532-0.67-0.59-0.107-1.232 0.005-1.926 0.337v0c-0.222 0.6-0.293 1.311-0.214 2.134 0.085 0.82 0.348 1.689 0.787 2.608v0c0.9 1.882 1.955 3.079 3.165 3.593 1.211 0.513 2.391 0.495 3.542-0.056v0c1.169-0.559 2.203-1.566 3.101-3.02v0l1.384 1.112c-0.511 1.247-1.194 2.291-2.047 3.133-0.857 0.851-1.788 1.517-2.793 1.998v0c-1.169 0.559-2.386 0.823-3.65 0.791-1.255-0.028-2.438-0.405-3.549-1.131-1.104-0.729-2.022-1.858-2.752-3.386v0c-0.74-1.547-1.037-2.99-0.893-4.331 0.141-1.347 0.594-2.521 1.358-3.522 0.766-1.01 1.713-1.784 2.839-2.323z" fill="#2257bf" data-fill-palette-color="primary"></path><path d="M112.09 22.777l1.416 1.332c-0.534 0.922-1.233 1.791-2.099 2.608-0.872 0.818-1.97 1.439-3.294 1.863v0c-1.594 0.511-3.038 0.583-4.332 0.218-1.3-0.363-2.39-1.013-3.271-1.95-0.888-0.935-1.526-2.009-1.915-3.224v0c-0.395-1.234-0.497-2.502-0.305-3.804 0.19-1.308 0.727-2.497 1.611-3.567 0.888-1.078 2.193-1.893 3.916-2.445v0c0.926-0.296 1.869-0.482 2.83-0.556 0.959-0.081 1.932 0.001 2.917 0.246v0c0.054 1.251 0.135 2.267 0.243 3.047 0.102 0.782 0.194 1.525 0.278 2.229v0l-1.658 0.531-1.465-2.848c-0.701-0.286-1.448-0.45-2.242-0.493-0.785-0.039-1.524 0.077-2.217 0.348v0c-0.292 0.703-0.443 1.471-0.452 2.303-0.018 0.828 0.1 1.64 0.355 2.438v0c0.383 1.196 0.924 2.156 1.625 2.881 0.694 0.727 1.463 1.215 2.307 1.462 0.847 0.253 1.681 0.248 2.504-0.016v0c0.546-0.175 1.097-0.479 1.653-0.912 0.556-0.433 1.087-0.997 1.595-1.691z" fill="#2257bf" data-fill-palette-color="primary"></path><path d="M118.869 5.991v0c0.101 0.805 0.239 1.74 0.415 2.806 0.168 1.06 0.354 2.155 0.556 3.285 0.195 1.131 0.395 2.209 0.598 3.235 0.197 1.027 0.371 1.915 0.523 2.663 0.152 0.748 0.265 1.269 0.34 1.563v0c0.202 0.834 0.461 1.401 0.777 1.7 0.315 0.292 0.744 0.388 1.289 0.287v0c0.392-0.072 0.791-0.215 1.198-0.428 0.406-0.219 0.924-0.61 1.554-1.172v0l0.929 1.239c-0.482 0.583-1.001 1.173-1.557 1.77-0.561 0.605-1.195 1.13-1.902 1.576-0.713 0.448-1.535 0.757-2.464 0.929v0c-0.524 0.097-1.058 0.086-1.602-0.033-0.545-0.126-1.02-0.429-1.424-0.91-0.403-0.475-0.69-1.17-0.859-2.086v0c0.005 0.027-0.03-0.18-0.104-0.619-0.066-0.434-0.159-1.01-0.279-1.73-0.126-0.718-0.25-1.481-0.371-2.289-0.127-0.8-0.249-1.553-0.366-2.259-0.118-0.713-0.211-1.292-0.281-1.739-0.076-0.446-0.109-0.646-0.1-0.6v0c-0.067-0.249-0.249-0.438-0.548-0.568-0.293-0.138-0.625-0.241-0.994-0.31-0.364-0.077-0.696-0.146-0.996-0.207-0.293-0.063-0.462-0.162-0.508-0.298v0c0.527-0.194 0.978-0.37 1.354-0.528 0.368-0.164 0.77-0.345 1.208-0.542v0c0.375-0.756 0.708-1.462 0.998-2.12 0.298-0.652 0.636-1.425 1.013-2.318v0c0.206-0.038 0.468-0.086 0.786-0.146 0.319-0.059 0.591-0.109 0.817-0.151zM112.693 11.796l11.722-2.197 0.46 2.489-11.852 1.49z" fill="#2257bf" data-fill-palette-color="primary"></path><path d="M135.307 8.056v0c0.087 1.34 0.163 2.624 0.228 3.851 0.058 1.228 0.127 2.339 0.207 3.335v0c0.069 0.854 0.168 1.835 0.297 2.942 0.123 1.107 0.228 2.087 0.317 2.94v0l2.833 0.504-0.482 1.329c-0.609 0.001-1.221 0.02-1.834 0.056-0.613 0.042-1.531 0.113-2.756 0.211v0c-1.13 0.091-2.014 0.172-2.651 0.243-0.63 0.078-1.304 0.155-2.023 0.233v0l-0.658-1.237 2.888-0.963c-0.046-1.161-0.096-2.169-0.151-3.025-0.055-0.855-0.137-1.79-0.245-2.803v0c-0.043-0.531-0.084-1.006-0.124-1.422-0.047-0.416-0.105-0.882-0.173-1.398-0.062-0.523-0.159-1.186-0.292-1.988v0l-2.499-0.257-0.63-1.269c0.529-0.07 1.216-0.159 2.061-0.267 0.837-0.115 1.75-0.259 2.738-0.433 0.981-0.174 1.965-0.368 2.949-0.582zM132.507 5.691v0c-0.74 0.059-1.398-0.165-1.973-0.675-0.576-0.516-0.897-1.177-0.962-1.984v0c-0.061-0.76 0.152-1.441 0.639-2.042 0.487-0.594 1.101-0.921 1.841-0.981v0c0.733-0.059 1.388 0.166 1.963 0.675 0.576 0.516 0.895 1.154 0.956 1.914v0c0.065 0.807-0.146 1.512-0.633 2.113-0.487 0.594-1.097 0.921-1.831 0.98z" fill="#2257bf" data-fill-palette-color="primary"></path><path d="M149.726 8.145v0c1.713 0.066 3.129 0.479 4.248 1.238 1.119 0.766 1.939 1.74 2.46 2.922 0.528 1.182 0.766 2.444 0.714 3.787v0c-0.053 1.362-0.392 2.629-1.018 3.8-0.626 1.171-1.533 2.095-2.722 2.772-1.188 0.67-2.648 0.971-4.381 0.904v0c-1.74-0.067-3.186-0.488-4.338-1.262-1.152-0.774-2.008-1.777-2.568-3.008-0.554-1.224-0.804-2.52-0.751-3.889v0c0.052-1.342 0.394-2.575 1.025-3.699 0.638-1.123 1.568-2.016 2.788-2.678 1.221-0.662 2.736-0.958 4.543-0.887zM146.264 14.869v0c-0.045 1.16 0.044 2.264 0.267 3.314 0.229 1.056 0.598 1.918 1.105 2.585 0.508 0.668 1.132 1.017 1.874 1.046v0c0.877 0.034 1.55-0.419 2.018-1.361 0.469-0.948 0.731-2.14 0.788-3.576v0c0.045-1.16-0.047-2.261-0.278-3.303-0.223-1.042-0.585-1.9-1.085-2.575-0.494-0.681-1.122-1.036-1.884-1.066v0c-0.883-0.034-1.56 0.419-2.028 1.36-0.462 0.948-0.721 2.14-0.777 3.576z" fill="#2257bf" data-fill-palette-color="primary"></path><path d="M175.317 11.921v0c1.293 0.278 2.248 0.99 2.865 2.137 0.622 1.155 0.81 2.514 0.564 4.077v0c-0.06 0.408-0.197 1.048-0.412 1.92-0.207 0.867-0.426 1.81-0.659 2.83-0.231 1.013-0.44 1.952-0.625 2.817v0l2.401 1.261-0.815 1.14c-0.577-0.172-1.241-0.346-1.99-0.52-0.744-0.167-1.479-0.328-2.205-0.484v0c-0.884-0.19-1.678-0.35-2.382-0.48-0.712-0.125-1.363-0.241-1.955-0.347v0l-0.176-1.353 2.638-0.179c0.185-0.768 0.349-1.416 0.49-1.945 0.135-0.53 0.265-1.058 0.391-1.583 0.128-0.532 0.257-1.163 0.386-1.895v0c0.278-1.39 0.247-2.453-0.092-3.188-0.339-0.735-0.952-1.305-1.839-1.71v0c-1.138 0.446-2.037 1.095-2.696 1.948-0.659 0.853-1.068 1.714-1.227 2.584v0l-0.947-1.767c0.436-1.259 1.077-2.333 1.924-3.221 0.838-0.883 1.808-1.51 2.91-1.882 1.1-0.365 2.25-0.418 3.451-0.16zM169.812 10.553v0c-0.161 0.752-0.292 1.359-0.391 1.822-0.101 0.469-0.207 0.932-0.319 1.391-0.106 0.461-0.265 1.072-0.477 1.834v0l-1.573 7.957 2.332 1.246-0.705 1.163c-0.762-0.212-1.482-0.397-2.159-0.556-0.678-0.152-1.427-0.317-2.245-0.492v0c-0.884-0.19-1.652-0.344-2.303-0.464-0.652-0.112-1.311-0.23-1.974-0.351v0l-0.265-1.372 2.697-0.166c0.156-0.726 0.37-1.577 0.641-2.555 0.264-0.972 0.491-1.9 0.681-2.784v0c0.142-0.66 0.257-1.212 0.344-1.655 0.082-0.445 0.152-0.917 0.211-1.415 0.057-0.492 0.125-1.147 0.204-1.965v0l-2.515-1.213-0.129-1.374c1.355 0.215 2.64 0.387 3.855 0.517 1.221 0.131 2.585 0.275 4.09 0.432z" fill="#2257bf" data-fill-palette-color="primary"></path><path d="M189.463 31.075v0c0.542-0.724 0.994-1.326 1.356-1.805 0.365-0.486 0.733-1.026 1.103-1.621v0l1.582 0.729-0.63 2.697c0.168 0.36 0.414 0.689 0.738 0.987 0.315 0.301 0.662 0.539 1.042 0.714v0c0.527 0.243 1.054 0.333 1.58 0.272 0.529-0.068 0.915-0.366 1.159-0.893v0c0.203-0.441 0.208-0.878 0.013-1.31-0.195-0.432-0.496-0.875-0.903-1.33-0.398-0.458-0.831-0.929-1.3-1.413-0.468-0.483-0.876-1.009-1.224-1.578-0.353-0.572-0.577-1.184-0.669-1.836-0.09-0.658 0.044-1.377 0.402-2.155v0c0.494-1.073 1.148-1.797 1.96-2.174 0.815-0.382 1.711-0.512 2.688-0.389 0.979 0.117 1.941 0.393 2.884 0.828v0c0.742 0.342 1.471 0.782 2.19 1.321 0.727 0.536 1.341 1.112 1.844 1.731v0c-0.504 0.659-0.959 1.241-1.362 1.746-0.395 0.502-0.771 1.004-1.13 1.509v0l-1.629-0.796 0.583-2.328c-0.146-0.684-0.65-1.225-1.515-1.624v0c-0.466-0.215-0.941-0.304-1.426-0.267-0.488 0.028-0.844 0.284-1.068 0.768v0c-0.212 0.46-0.216 0.911-0.011 1.355 0.207 0.437 0.531 0.888 0.972 1.35 0.437 0.454 0.907 0.942 1.41 1.464 0.5 0.528 0.935 1.092 1.304 1.693 0.373 0.61 0.599 1.272 0.679 1.985 0.08 0.713-0.079 1.502-0.477 2.367v0c-0.466 1.011-1.11 1.692-1.933 2.041-0.826 0.34-1.753 0.433-2.782 0.278-1.023-0.152-2.061-0.47-3.115-0.956v0c-0.803-0.37-1.577-0.827-2.322-1.371-0.742-0.55-1.407-1.213-1.993-1.989z" fill="#2257bf" data-fill-palette-color="primary"></path><path d="M216.286 29.152v0c0.983 0.617 1.757 1.402 2.323 2.355 0.562 0.958 0.819 2.033 0.773 3.223-0.052 1.187-0.491 2.437-1.316 3.752v0c-0.479-0.189-1.091-0.478-1.835-0.866-0.739-0.384-1.54-0.828-2.405-1.33-0.864-0.503-1.719-1.02-2.564-1.551v0c-0.629-0.395-1.163-0.743-1.604-1.043-0.441-0.301-0.731-0.511-0.872-0.631v0l0.889-1.414c0.217 0.136 0.546 0.343 0.986 0.619 0.44 0.276 0.94 0.578 1.499 0.905 0.569 0.325 1.126 0.631 1.671 0.918 0.542 0.292 1.009 0.518 1.403 0.678v0c0.236-0.426 0.383-0.915 0.444-1.467 0.06-0.552-0.024-1.103-0.253-1.653-0.225-0.556-0.663-1.038-1.315-1.447v0c-0.626 0.133-1.265 0.453-1.918 0.959-0.647 0.51-1.242 1.197-1.783 2.06v0c-1.109 1.766-1.557 3.298-1.344 4.596 0.213 1.298 0.86 2.285 1.94 2.964v0c1.097 0.689 2.501 1.024 4.21 1.006v0l-0.199 1.763c-1.327 0.235-2.575 0.216-3.743-0.055-1.178-0.269-2.238-0.7-3.181-1.292v0c-1.097-0.689-1.971-1.576-2.62-2.662-0.647-1.076-0.961-2.277-0.941-3.603 0.026-1.323 0.489-2.701 1.39-4.136v0c0.912-1.452 1.973-2.475 3.183-3.07 1.214-0.601 2.448-0.846 3.701-0.736 1.263 0.108 2.424 0.494 3.481 1.158z" fill="#2257bf" data-fill-palette-color="primary"></path><path d="M230.803 40.063v0c-0.324 0.425-0.699 0.925-1.124 1.502-0.435 0.578-0.827 1.108-1.175 1.592-0.343 0.479-0.582 0.798-0.717 0.958v0l-4.914 6.186 2.066 2.888-1.225 0.648c-0.291-0.273-0.679-0.623-1.165-1.052-0.486-0.429-0.99-0.873-1.512-1.332-0.526-0.454-1.003-0.862-1.432-1.224v0c-0.546-0.462-1.145-0.956-1.797-1.48-0.651-0.516-1.249-0.99-1.793-1.424v0l0.429-1.322 2.619 1.261c0.676-0.799 1.279-1.512 1.811-2.141 0.532-0.629 1.111-1.314 1.739-2.056v0c0.344-0.407 0.66-0.785 0.947-1.135 0.282-0.354 0.595-0.756 0.941-1.206 0.351-0.446 0.77-1.01 1.26-1.693v0l-1.561-1.824 0.571-1.426c0.425 0.324 0.99 0.758 1.696 1.302 0.716 0.544 1.465 1.084 2.248 1.622 0.788 0.542 1.484 0.994 2.088 1.356zM234.412 43.023v0c0.495 0.418 0.875 0.899 1.141 1.442 0.271 0.547 0.427 1.188 0.469 1.922v0c-0.552 0.444-1.037 0.824-1.456 1.142-0.42 0.308-0.847 0.605-1.283 0.89-0.436 0.285-0.967 0.636-1.593 1.052v0l-1.492-1.262c0.43-0.759 0.733-1.484 0.91-2.173 0.173-0.685 0.132-1.29-0.123-1.815v0c-0.683-0.091-1.552 0.079-2.608 0.513-1.046 0.432-2.11 1.287-3.19 2.565v0l0.271-2.422c0.981-0.867 2.028-1.546 3.142-2.037 1.109-0.485 2.173-0.73 3.193-0.733 1.02-0.004 1.893 0.302 2.619 0.916z" fill="#2257bf" data-fill-palette-color="primary"></path><path d="M245.827 56.036v0l-0.622 1.299-2.298-1.515c-0.413 0.838-0.77 1.554-1.072 2.147-0.306 0.588-0.588 1.169-0.845 1.742-0.261 0.568-0.536 1.213-0.825 1.937-0.288 0.714-0.633 1.605-1.035 2.674v0c-0.144 0.185-0.464 0.35-0.96 0.496-0.501 0.151-1.049 0.276-1.646 0.377-0.597 0.1-1.137 0.147-1.62 0.142-0.474-0.005-0.772-0.079-0.894-0.224v0c0.57-1.299 1.083-2.488 1.538-3.567 0.455-1.069 0.893-2.092 1.312-3.068 0.415-0.981 0.838-2.005 1.269-3.072 0.431-1.066 0.898-2.252 1.401-3.556v0l-0.928-2.28 1.232-0.583c0.435 0.543 0.859 1.073 1.272 1.59 0.408 0.521 0.896 1.116 1.464 1.785v0c0.629 0.741 1.226 1.421 1.788 2.041 0.557 0.625 1.047 1.169 1.469 1.635zM252.063 63.371v0l-0.642 1.277-2.272-1.484c-1.827 0.393-3.457 0.795-4.888 1.205-1.431 0.411-2.83 0.829-4.195 1.255-1.366 0.435-2.852 0.892-4.457 1.369v0l-1.599-1.882c2.156-0.548 4.304-1.147 6.444-1.797 2.14-0.65 4.37-1.487 6.689-2.511v0l-1.151-2.542 1.343-0.451c0.465 0.579 0.874 1.091 1.226 1.536 0.347 0.449 0.714 0.903 1.104 1.36v0c0.511 0.602 0.935 1.079 1.27 1.432 0.33 0.357 0.706 0.768 1.128 1.233z" fill="#2257bf" data-fill-palette-color="primary"></path><path d="M258.883 72.647v0c-1.144 0.705-2.243 1.373-3.297 2.004-1.058 0.626-2.008 1.207-2.85 1.743v0c-0.723 0.461-1.543 1.007-2.46 1.64-0.921 0.627-1.738 1.179-2.45 1.657v0l0.881 2.739-1.4 0.196c-0.287-0.538-0.589-1.069-0.908-1.594-0.324-0.522-0.816-1.3-1.476-2.337v0c-0.609-0.956-1.095-1.699-1.456-2.229-0.364-0.521-0.748-1.08-1.153-1.678v0l0.785-1.161 2.203 2.102c1.004-0.584 1.872-1.1 2.602-1.55 0.73-0.449 1.518-0.959 2.363-1.529v0c0.45-0.286 0.849-0.545 1.198-0.776 0.346-0.236 0.73-0.505 1.154-0.807 0.433-0.3 0.973-0.696 1.62-1.188v0l-0.943-2.328 0.827-1.151c0.309 0.435 0.709 1.001 1.201 1.696 0.493 0.686 1.048 1.425 1.664 2.217 0.613 0.786 1.244 1.564 1.895 2.334zM259.663 69.065v0c-0.399-0.626-0.508-1.313-0.328-2.06 0.186-0.751 0.621-1.344 1.303-1.778v0c0.643-0.41 1.344-0.54 2.103-0.392 0.753 0.152 1.329 0.542 1.729 1.168v0c0.395 0.62 0.503 1.304 0.322 2.051-0.186 0.751-0.601 1.331-1.244 1.741v0c-0.683 0.435-1.404 0.578-2.163 0.429-0.753-0.152-1.328-0.539-1.722-1.159z" fill="#2257bf" data-fill-palette-color="primary"></path><path d="M257.866 94.59l-1.114 1.593c-0.99-0.395-1.951-0.961-2.883-1.699-0.935-0.744-1.709-1.741-2.321-2.99v0c-0.736-1.503-1.017-2.921-0.842-4.254 0.171-1.339 0.657-2.512 1.456-3.519 0.796-1.014 1.767-1.801 2.913-2.362v0c1.164-0.57 2.404-0.854 3.72-0.852 1.322-0.001 2.576 0.358 3.762 1.078 1.195 0.722 2.191 1.896 2.986 3.52v0c0.427 0.873 0.747 1.78 0.96 2.721 0.218 0.938 0.278 1.912 0.179 2.922v0c-1.23 0.234-2.224 0.461-2.981 0.681-0.759 0.214-1.481 0.413-2.164 0.597v0l-0.766-1.564 2.606-1.861c0.181-0.735 0.236-1.498 0.164-2.29-0.075-0.782-0.297-1.497-0.666-2.143v0c-0.738-0.187-1.519-0.226-2.344-0.114-0.822 0.102-1.609 0.337-2.361 0.704v0c-1.128 0.552-2 1.227-2.616 2.025-0.619 0.792-0.99 1.623-1.112 2.494-0.128 0.874-0.002 1.699 0.378 2.475v0c0.252 0.515 0.633 1.017 1.142 1.504 0.509 0.487 1.144 0.932 1.904 1.334z" fill="#2257bf" data-fill-palette-color="primary"></path><path d="M272.008 101.298v0c0.368 1.101 0.467 2.199 0.299 3.294-0.175 1.097-0.658 2.091-1.449 2.981-0.794 0.884-1.927 1.572-3.399 2.063v0c-0.25-0.45-0.539-1.062-0.868-1.834-0.327-0.766-0.664-1.618-1.013-2.554-0.348-0.937-0.68-1.879-0.997-2.827v0c-0.235-0.704-0.427-1.312-0.577-1.825-0.15-0.512-0.24-0.859-0.272-1.04v0l1.584-0.529c0.081 0.243 0.204 0.611 0.369 1.105 0.165 0.493 0.359 1.044 0.583 1.651 0.233 0.612 0.469 1.203 0.709 1.771 0.233 0.57 0.451 1.041 0.653 1.414v0c0.452-0.179 0.877-0.463 1.274-0.852 0.397-0.389 0.682-0.868 0.854-1.438 0.179-0.572 0.147-1.223-0.096-1.952v0c-0.568-0.294-1.265-0.453-2.091-0.477-0.824-0.017-1.719 0.136-2.686 0.459v0c-1.978 0.66-3.297 1.559-3.956 2.697-0.659 1.138-0.787 2.312-0.383 3.522v0c0.41 1.229 1.281 2.379 2.614 3.45v0l-1.274 1.236c-1.174-0.661-2.126-1.468-2.857-2.419-0.739-0.956-1.285-1.962-1.637-3.018v0c-0.41-1.229-0.522-2.469-0.334-3.72 0.183-1.242 0.703-2.369 1.561-3.381 0.86-1.006 2.093-1.777 3.7-2.313v0c1.626-0.543 3.096-0.66 4.408-0.351 1.319 0.307 2.428 0.901 3.327 1.782 0.907 0.885 1.559 1.92 1.954 3.105z" fill="#2257bf" data-fill-palette-color="primary"></path><path d="M13.031 143.789c0-1.644 1.333-2.977 2.977-2.977 1.644 0 2.977 1.333 2.977 2.977 0 1.644-1.333 2.977-2.977 2.977-1.644 0-2.977-1.333-2.977-2.977z" fill="#2257bf" data-fill-palette-color="primary"></path><path d="M267.903 143.789c0-1.644 1.333-2.977 2.977-2.977 1.644 0 2.977 1.333 2.978 2.977 0 1.644-1.333 2.977-2.978 2.977-1.644 0-2.977-1.333-2.977-2.977z" fill="#2257bf" data-fill-palette-color="primary"></path></g><g id="text-1"><path d="M45.846 187.121v0c-1.561 0.545-3.273 1.14-5.136 1.784-1.859 0.635-3.973 1.367-6.343 2.195v0c-1.982 0.692-3.896 1.361-5.744 2.006-1.841 0.643-3.464 1.217-4.868 1.723-1.4 0.496-2.452 0.882-3.156 1.156v0l0.197 3.02-1.551-0.08c-0.169-0.649-0.361-1.279-0.574-1.891-0.214-0.612-0.474-1.357-0.782-2.236v0c-0.232-0.663-0.43-1.212-0.597-1.647-0.166-0.435-0.322-0.82-0.468-1.155v0c0.484-0.191 0.928-0.392 1.333-0.606 0.405-0.213 0.832-0.423 1.281-0.63v0c1.105-0.357 2.211-0.722 3.318-1.094 1.105-0.379 2.17-0.747 3.195-1.106v0c0.707-0.247 1.402-0.49 2.084-0.728 0.688-0.24 1.395-0.498 2.121-0.773v0c1.121-0.392 2.335-0.837 3.64-1.337 1.312-0.501 2.617-1.011 3.917-1.529 1.297-0.525 2.467-1.023 3.51-1.494v0l-0.57-3.136 1.46-0.886c0.147 0.421 0.374 0.988 0.681 1.703 0.307 0.715 0.641 1.496 1 2.342 0.366 0.844 0.733 1.657 1.098 2.437 0.37 0.772 0.688 1.426 0.954 1.962zM31.101 181.538v0c0.47 1.344 0.53 2.653 0.182 3.926-0.349 1.273-1.089 2.368-2.22 3.285v0l-3.513-0.049c0.854-0.298 1.567-0.744 2.139-1.337 0.57-0.599 0.992-1.233 1.266-1.901 0.272-0.674 0.378-1.262 0.317-1.762v0c-0.634-0.872-1.572-1.399-2.815-1.58-1.245-0.187-2.552-0.041-3.922 0.438v0c-1.854 0.648-3.11 1.483-3.768 2.506-0.655 1.03-0.825 1.997-0.509 2.902v0c0.298 0.854 1.044 1.505 2.238 1.953 1.197 0.44 2.607 0.544 4.227 0.314v0l-1.259 1.705c-2.013-0.033-3.804-0.412-5.373-1.136-1.571-0.731-2.647-1.928-3.228-3.591v0c-0.383-1.096-0.444-2.272-0.182-3.529 0.262-1.257 0.891-2.431 1.89-3.523 1.007-1.088 2.44-1.957 4.301-2.607v0c1.733-0.606 3.305-0.772 4.715-0.5 1.411 0.272 2.59 0.825 3.54 1.658 0.949 0.834 1.607 1.776 1.974 2.828z" fill="#2257bf" data-fill-palette-color="primary"></path><path d="M44.812 210.033v0c0.705 1.087 1.119 2.247 1.242 3.478 0.117 1.235-0.128 2.44-0.735 3.613-0.609 1.183-1.641 2.246-3.096 3.19v0c-0.393-0.421-0.877-1-1.452-1.738-0.569-0.741-1.173-1.568-1.813-2.48-0.64-0.912-1.262-1.836-1.868-2.771v0c-0.452-0.697-0.828-1.301-1.128-1.814-0.3-0.513-0.496-0.865-0.587-1.055v0l1.563-1.013c0.154 0.238 0.389 0.6 0.705 1.087 0.319 0.493 0.687 1.035 1.102 1.626 0.413 0.601 0.828 1.172 1.244 1.715 0.42 0.548 0.787 0.998 1.103 1.348v0c0.444-0.32 0.825-0.744 1.143-1.271 0.32-0.537 0.494-1.137 0.523-1.799 0.031-0.672-0.185-1.364-0.647-2.078v0c-0.696-0.168-1.491-0.147-2.385 0.062-0.899 0.213-1.828 0.63-2.785 1.25v0c-1.954 1.267-3.128 2.607-3.523 4.021-0.395 1.414-0.204 2.718 0.57 3.913v0c0.786 1.212 2.049 2.211 3.789 2.998v0l-1.027 1.691c-1.455-0.384-2.712-0.989-3.77-1.815-1.058-0.826-1.925-1.76-2.601-2.802v0c-0.789-1.218-1.259-2.526-1.41-3.924-0.15-1.399 0.099-2.763 0.749-4.093 0.65-1.33 1.768-2.509 3.354-3.538v0c1.608-1.043 3.165-1.581 4.671-1.616 1.5-0.031 2.863 0.304 4.09 1.005 1.227 0.701 2.22 1.638 2.979 2.81z" fill="#2257bf" data-fill-palette-color="primary"></path><path d="M45.09 236.332v0c0.831-0.555 1.532-1.015 2.103-1.382 0.565-0.371 1.157-0.798 1.773-1.28v0l1.384 1.365-1.685 2.589c0.041 0.439 0.173 0.877 0.395 1.314 0.223 0.438 0.5 0.82 0.832 1.147v0c0.461 0.455 0.981 0.75 1.559 0.884 0.578 0.134 1.095-0.029 1.55-0.49v0c0.379-0.384 0.548-0.844 0.506-1.378-0.037-0.529-0.182-1.108-0.434-1.737-0.253-0.628-0.532-1.287-0.838-1.977-0.31-0.685-0.542-1.392-0.694-2.121-0.148-0.734-0.146-1.462 0.006-2.184 0.148-0.726 0.558-1.431 1.231-2.113v0c0.924-0.937 1.885-1.45 2.881-1.538 1.002-0.093 1.993 0.113 2.975 0.616 0.982 0.494 1.886 1.149 2.713 1.965v0c0.649 0.64 1.253 1.378 1.812 2.213 0.55 0.836 0.973 1.676 1.271 2.519v0c-0.784 0.497-1.478 0.936-2.081 1.317-0.613 0.381-1.205 0.765-1.775 1.151v0l-1.406-1.444 1.495-2.237c0.104-0.769-0.221-1.526-0.975-2.269v0c-0.408-0.403-0.873-0.681-1.395-0.835-0.521-0.144-0.99-0.005-1.407 0.417v0c-0.398 0.404-0.574 0.875-0.527 1.414 0.047 0.539 0.215 1.132 0.506 1.779 0.286 0.652 0.592 1.347 0.917 2.084 0.325 0.737 0.569 1.495 0.731 2.272 0.163 0.777 0.149 1.555-0.041 2.334-0.181 0.779-0.645 1.548-1.394 2.308v0c-0.872 0.884-1.807 1.351-2.804 1.401-0.997 0.05-2.006-0.201-3.026-0.752-1.02-0.551-1.99-1.28-2.907-2.185v0c-0.702-0.692-1.342-1.465-1.921-2.32-0.569-0.855-1.012-1.804-1.33-2.847z" fill="#2257bf" data-fill-palette-color="primary"></path><path d="M81.636 245.77v0c-0.839 1.25-1.645 2.441-2.416 3.573-0.781 1.135-1.472 2.167-2.073 3.097v0c-0.52 0.805-1.1 1.74-1.74 2.805-0.649 1.067-1.222 2.011-1.719 2.83v0l2.171 2.367-1.333 0.851c-0.538-0.412-1.092-0.81-1.663-1.195-0.565-0.381-1.423-0.944-2.574-1.687v0c-1.066-0.688-1.907-1.215-2.522-1.581-0.61-0.362-1.26-0.749-1.949-1.162v0l0.253-1.549 3.211 1.111c0.748-1.059 1.388-1.988 1.92-2.786 0.531-0.798 1.095-1.683 1.692-2.655v0c0.322-0.499 0.604-0.948 0.845-1.346 0.241-0.399 0.508-0.849 0.8-1.351 0.302-0.504 0.664-1.158 1.087-1.962v0l-2.039-1.92 0.309-1.56c0.51 0.305 1.176 0.692 2 1.159 0.823 0.467 1.73 0.961 2.72 1.48 0.994 0.514 2.001 1.007 3.02 1.481zM80.75 241.787v0c-0.697-0.45-1.127-1.098-1.289-1.942-0.168-0.848-0.004-1.654 0.49-2.419v0c0.461-0.714 1.113-1.169 1.955-1.365 0.836-0.199 1.602-0.074 2.299 0.377v0c0.692 0.447 1.118 1.092 1.281 1.936 0.168 0.848 0.021 1.628-0.441 2.343v0c-0.494 0.765-1.162 1.246-2.004 1.441-0.836 0.199-1.6 0.076-2.291-0.371z" fill="#2257bf" data-fill-palette-color="primary"></path><path d="M107.475 257.189v0c1.385 0.496 2.335 1.427 2.849 2.794 0.514 1.367 0.526 2.898 0.034 4.593v0c-0.138 0.445-0.385 1.135-0.74 2.068-0.362 0.931-0.745 1.941-1.149 3.03-0.406 1.095-0.775 2.106-1.108 3.034v0l2.473 1.745-1.076 1.142c-0.611-0.276-1.318-0.565-2.12-0.867-0.802-0.302-1.591-0.591-2.366-0.868v0c-0.953-0.341-1.812-0.634-2.578-0.88-0.765-0.245-1.47-0.469-2.115-0.671v0l0.018-1.52 2.941 0.192c0.317-0.826 0.591-1.52 0.821-2.082 0.23-0.563 0.454-1.128 0.671-1.696 0.217-0.567 0.453-1.246 0.708-2.037v0c0.507-1.496 0.629-2.678 0.366-3.546-0.271-0.864-0.867-1.583-1.788-2.156v0c-1.326 0.321-2.417 0.905-3.272 1.753-0.849 0.85-1.427 1.744-1.734 2.681v0l-0.777-2.095c0.663-1.333 1.527-2.425 2.592-3.277 1.061-0.861 2.227-1.415 3.498-1.662 1.271-0.247 2.555-0.139 3.852 0.325zM101.573 254.872v0c-0.289 0.807-0.523 1.462-0.703 1.964-0.177 0.496-0.362 0.992-0.555 1.489-0.184 0.493-0.45 1.147-0.798 1.962v0l-2.907 8.572 2.396 1.718-0.961 1.183c-0.808-0.346-1.575-0.657-2.302-0.931-0.726-0.274-1.528-0.568-2.404-0.882v0c-0.953-0.341-1.781-0.623-2.483-0.846-0.702-0.222-1.413-0.448-2.134-0.677v0l-0.097-1.562 3.019 0.22c0.28-0.782 0.638-1.693 1.075-2.734 0.443-1.038 0.836-2.034 1.176-2.987v0c0.252-0.705 0.458-1.299 0.616-1.78 0.156-0.475 0.302-0.985 0.44-1.53 0.142-0.537 0.316-1.253 0.521-2.147v0l-2.604-1.707 0.06-1.548c1.463 0.438 2.861 0.82 4.192 1.145 1.325 0.324 2.809 0.683 4.453 1.078z" fill="#2257bf" data-fill-palette-color="primary"></path><path d="M129.066 261.389v0c0.357-2.699 1.053-4.835 2.087-6.407 1.028-1.579 2.226-2.687 3.594-3.323 1.361-0.637 2.714-0.898 4.059-0.784v0c2.32 0.196 3.894 0.926 4.722 2.188v0c-0.135 0.95-0.359 1.761-0.673 2.432-0.315 0.678-0.723 1.334-1.224 1.969v0l-2.088-0.177c-0.296-1.38-0.693-2.416-1.189-3.108-0.504-0.686-1.088-1.112-1.752-1.276v0c-0.62 0.598-1.137 1.509-1.552 2.734-0.415 1.225-0.71 2.869-0.885 4.934v0c-0.079 0.928-0.173 2.044-0.284 3.349-0.11 1.305-0.222 2.704-0.335 4.198-0.113 1.494-0.219 2.992-0.319 4.495-0.106 1.495-0.201 2.889-0.283 4.182v0l3.923 1.541-0.696 1.384c-0.442-0.064-1.022-0.134-1.74-0.208-0.718-0.074-1.464-0.151-2.236-0.23-0.779-0.079-1.478-0.145-2.097-0.198v0c-0.776-0.039-1.685-0.095-2.729-0.17-1.044-0.075-1.967-0.133-2.769-0.174v0l-0.534-1.488 3.427-0.522c0.2-1.724 0.364-3.336 0.491-4.836 0.126-1.493 0.266-3.066 0.42-4.719 0.153-1.647 0.374-3.575 0.662-5.786zM125.103 264.518l0.792-2.036 12.146 1.028 0.212 3.137c-2.179-0.422-4.379-0.835-6.601-1.239-2.227-0.412-4.41-0.709-6.549-0.89z" fill="#2257bf" data-fill-palette-color="primary"></path><path d="M157.231 262.144v0c1.289-0.137 2.51 0.018 3.664 0.466 1.155 0.454 2.118 1.217 2.89 2.289 0.78 1.078 1.261 2.479 1.445 4.204v0c-0.553 0.161-1.288 0.33-2.206 0.509-0.918 0.172-1.929 0.337-3.032 0.495-1.103 0.158-2.208 0.296-3.316 0.414v0c-0.826 0.088-1.535 0.15-2.129 0.186-0.593 0.036-0.996 0.052-1.206 0.046v0l-0.197-1.852c0.282-0.03 0.711-0.076 1.288-0.137 0.584-0.062 1.233-0.145 1.949-0.248 0.723-0.097 1.42-0.209 2.093-0.334 0.679-0.126 1.246-0.251 1.701-0.375v0c-0.085-0.541-0.29-1.072-0.618-1.593-0.334-0.528-0.79-0.954-1.368-1.28-0.585-0.331-1.3-0.452-2.146-0.363v0c-0.465 0.545-0.806 1.263-1.023 2.155-0.217 0.899-0.265 1.915-0.144 3.05v0c0.246 2.315 0.911 3.969 1.993 4.96 1.083 0.991 2.332 1.412 3.749 1.261v0c1.436-0.153 2.898-0.827 4.386-2.024v0l1.044 1.681c-1 1.124-2.108 1.972-3.323 2.542-1.215 0.57-2.441 0.921-3.676 1.052v0c-1.443 0.153-2.822-0.019-4.137-0.517-1.315-0.498-2.419-1.338-3.312-2.519-0.893-1.181-1.439-2.711-1.639-4.59v0c-0.203-1.906 0.021-3.538 0.671-4.897 0.65-1.352 1.566-2.416 2.745-3.194 1.18-0.777 2.464-1.239 3.854-1.387z" fill="#2257bf" data-fill-palette-color="primary"></path><path d="M193.362 265.658l1.607 1.458c-0.567 1.046-1.327 2.037-2.282 2.974-0.95 0.928-2.159 1.646-3.626 2.153v0c-1.761 0.609-3.37 0.726-4.827 0.352-1.456-0.368-2.688-1.063-3.699-2.085-1.01-1.022-1.748-2.206-2.213-3.552v0c-0.474-1.371-0.623-2.784-0.448-4.237 0.18-1.462 0.751-2.806 1.713-4.031 0.964-1.219 2.4-2.158 4.307-2.817v0c1.027-0.355 2.075-0.589 3.143-0.701 1.077-0.108 2.165-0.038 3.265 0.21v0c0.094 1.388 0.21 2.519 0.348 3.393 0.136 0.867 0.257 1.693 0.364 2.478v0l-1.837 0.635-1.7-3.151c-0.789-0.299-1.626-0.459-2.512-0.481-0.886-0.022-1.714 0.125-2.483 0.44v0c-0.299 0.789-0.444 1.65-0.436 2.583 0.006 0.926 0.161 1.83 0.466 2.709v0c0.457 1.32 1.083 2.379 1.879 3.175 0.788 0.792 1.659 1.319 2.614 1.581 0.953 0.256 1.882 0.228 2.788-0.085v0c0.612-0.212 1.222-0.565 1.829-1.061 0.613-0.498 1.193-1.145 1.74-1.94z" fill="#2257bf" data-fill-palette-color="primary"></path><path d="M203.708 241.291v0c0.427 0.799 0.945 1.716 1.555 2.751 0.608 1.044 1.242 2.116 1.9 3.217 0.655 1.095 1.293 2.136 1.915 3.125 0.622 0.989 1.16 1.842 1.616 2.559 0.459 0.724 0.786 1.224 0.98 1.502v0c0.547 0.789 1.042 1.273 1.484 1.453 0.452 0.182 0.943 0.111 1.472-0.213v0c0.374-0.229 0.731-0.539 1.07-0.929 0.339-0.39 0.719-1.003 1.141-1.839v0l1.474 0.913c-0.267 0.805-0.573 1.629-0.918 2.475-0.342 0.851-0.792 1.653-1.351 2.407-0.557 0.745-1.29 1.396-2.199 1.953v0c-0.506 0.31-1.065 0.51-1.675 0.599-0.62 0.087-1.235-0.039-1.846-0.377-0.617-0.335-1.195-0.942-1.734-1.822v0c0.014 0.023-0.102-0.179-0.348-0.607-0.246-0.427-0.577-0.992-0.992-1.695-0.421-0.7-0.856-1.442-1.305-2.228-0.45-0.785-0.878-1.524-1.287-2.216-0.408-0.692-0.739-1.257-0.992-1.695-0.253-0.439-0.365-0.635-0.337-0.589v0c-0.171-0.228-0.438-0.353-0.8-0.377-0.363-0.023-0.751 0.001-1.166 0.074-0.409 0.069-0.78 0.129-1.112 0.182-0.332 0.053-0.55 0.02-0.653-0.098v0c0.477-0.411 0.874-0.777 1.191-1.098 0.321-0.316 0.67-0.664 1.046-1.045v0c0.092-0.935 0.161-1.804 0.206-2.608 0.04-0.8 0.077-1.741 0.111-2.822v0c0.196-0.12 0.449-0.275 0.759-0.466 0.311-0.19 0.575-0.353 0.795-0.486zM199.6 249.816l11.329-6.99 1.482 2.416-11.759 6.292z" fill="#2257bf" data-fill-palette-color="primary"></path><path d="M225.568 230.11v0c0.995 1.13 1.941 2.212 2.84 3.247 0.898 1.044 1.72 1.975 2.466 2.793v0c0.646 0.708 1.403 1.507 2.269 2.397 0.867 0.9 1.633 1.694 2.299 2.384v0l2.842-1.496 0.483 1.505c-0.535 0.415-1.061 0.85-1.579 1.304-0.513 0.45-1.275 1.136-2.287 2.059v0c-0.937 0.855-1.661 1.534-2.171 2.037-0.505 0.498-1.045 1.027-1.621 1.588v0l-1.433-0.639 1.892-2.823c-0.834-0.994-1.568-1.849-2.204-2.566-0.636-0.717-1.348-1.488-2.137-2.312v0c-0.4-0.439-0.762-0.826-1.087-1.16-0.324-0.335-0.691-0.708-1.102-1.119-0.411-0.42-0.951-0.937-1.62-1.55v0l-2.376 1.482-1.43-0.696c0.425-0.415 0.968-0.961 1.63-1.638 0.662-0.677 1.37-1.428 2.124-2.253 0.75-0.83 1.484-1.678 2.202-2.544zM221.49 229.952v0c-0.613 0.56-1.348 0.81-2.205 0.752-0.862-0.054-1.6-0.417-2.215-1.09v0c-0.573-0.628-0.847-1.374-0.822-2.238 0.02-0.859 0.337-1.568 0.95-2.128v0c0.608-0.555 1.341-0.803 2.198-0.745 0.862 0.054 1.58 0.395 2.154 1.023v0c0.614 0.673 0.909 1.441 0.883 2.305-0.02 0.859-0.334 1.566-0.943 2.121z" fill="#2257bf" data-fill-palette-color="primary"></path><path d="M240.28 212.731v0c1.119-1.557 2.376-2.618 3.772-3.186 1.401-0.573 2.812-0.739 4.235-0.498 1.423 0.241 2.742 0.799 3.959 1.673v0c1.239 0.89 2.212 1.988 2.919 3.295 0.711 1.301 1.012 2.709 0.902 4.226-0.104 1.521-0.723 3.071-1.857 4.649v0c-1.13 1.573-2.41 2.66-3.84 3.262-1.435 0.598-2.896 0.774-4.382 0.529-1.485-0.236-2.849-0.801-4.093-1.694v0c-1.217-0.874-2.153-1.954-2.809-3.24-0.655-1.285-0.916-2.698-0.781-4.239 0.139-1.546 0.797-3.138 1.975-4.777zM244.409 220.099v0c1.052 0.756 2.137 1.352 3.253 1.789 1.121 0.44 2.149 0.63 3.082 0.569 0.942-0.062 1.654-0.428 2.134-1.097v0c0.575-0.8 0.567-1.708-0.025-2.723-0.597-1.019-1.545-1.996-2.844-2.929v0c-1.052-0.756-2.134-1.35-3.245-1.783-1.111-0.432-2.136-0.625-3.076-0.577-0.936 0.042-1.652 0.408-2.148 1.099v0c-0.575 0.8-0.567 1.708 0.025 2.723 0.592 1.015 1.54 1.992 2.844 2.929z" fill="#2257bf" data-fill-palette-color="primary"></path><path d="M255.631 181.844v0c0.512-1.379 1.454-2.318 2.827-2.817 1.373-0.498 2.904-0.492 4.592 0.02v0c0.444 0.143 1.13 0.398 2.06 0.764 0.927 0.373 1.932 0.768 3.016 1.184 1.09 0.419 2.097 0.8 3.021 1.143v0l1.774-2.452 1.129 1.088c-0.283 0.608-0.58 1.311-0.891 2.11-0.311 0.799-0.61 1.584-0.896 2.357v0c-0.352 0.949-0.655 1.805-0.909 2.567-0.254 0.762-0.486 1.465-0.696 2.107v0l-1.52-0.035 0.227-2.94c-0.822-0.327-1.513-0.608-2.073-0.845-0.56-0.237-1.123-0.467-1.687-0.691-0.565-0.224-1.241-0.468-2.029-0.731v0c-1.49-0.524-2.671-0.66-3.542-0.407-0.867 0.261-1.593 0.849-2.177 1.762v0c0.306 1.33 0.877 2.428 1.715 3.293 0.84 0.859 1.727 1.447 2.661 1.765v0l-2.104 0.752c-1.325-0.679-2.407-1.555-3.247-2.63-0.848-1.071-1.389-2.243-1.621-3.517-0.233-1.274-0.109-2.557 0.37-3.847zM253.245 187.718v0c0.804 0.298 1.455 0.54 1.956 0.726 0.494 0.183 0.988 0.374 1.483 0.572 0.491 0.189 1.142 0.463 1.952 0.821v0l8.538 3.007 1.746-2.376 1.171 0.975c-0.356 0.804-0.675 1.567-0.958 2.29-0.283 0.723-0.586 1.521-0.91 2.394v0c-0.352 0.949-0.644 1.773-0.874 2.473-0.231 0.699-0.465 1.408-0.703 2.125v0l-1.562 0.079 0.255-3.015c-0.778-0.289-1.685-0.658-2.721-1.107-1.033-0.455-2.024-0.859-2.973-1.211v0c-0.702-0.261-1.293-0.473-1.773-0.637-0.473-0.161-0.981-0.314-1.525-0.458-0.535-0.148-1.249-0.33-2.141-0.546v0l-1.737 2.585-1.547-0.078c0.455-1.458 0.853-2.851 1.194-4.178 0.339-1.321 0.716-2.801 1.129-4.441z" fill="#2257bf" data-fill-palette-color="primary"></path></g></svg></g></svg></g></svg></g></svg></g><defs></defs></svg><rect width="279.72" height="279.72" fill="none" stroke="none" visibility="hidden"></rect></g></svg></g></svg>